<svg class="unself-logo" width="65" height="65" viewBox="0 0 185 130" version="1.1" xmlns="http://www.w3.org/2000/svg"><g id="Page-1" stroke="none" stroke-width="1" fill="none" fill-rule="evenodd"><g id="mailchimp-unself-logo" transform="translate(-57.000000, -22.000000)" fill="#414141"><g id="rounded-logo" transform="translate(28.000000, 22.000000)"><g id="rounded-heart" class="fill" transform="translate(29.173913, 0.000000)"><path d="M135.526397,57.0836006 L99.6151777,77.9604635 L99.6151777,77.9604635 C99.1377134,78.2380357 98.9756689,78.8501136 99.2532411,79.3275779 C99.3402084,79.4771742 99.4645057,79.6016437 99.6139815,79.688818 L135.5252,100.63224 L135.5252,100.63224 C136.00228,100.910473 136.614582,100.749276 136.892815,100.272196 C136.981995,100.11928 137.028986,99.945432 137.028986,99.7684111 L137.028986,57.9481262 L137.028986,57.9481262 C137.028986,57.3958414 136.58127,56.9481262 136.028986,56.9481262 C135.852434,56.9481262 135.67903,56.9948679 135.526397,57.0836006 Z" id="Fill-4-Copy-4"/><path d="M180.829295,30.7460727 L143.322773,52.7070047 L143.322773,52.7070047 C142.709929,53.0658389 142.333333,53.7227467 142.333333,54.4329154 L142.333333,98.4355536 L142.333333,98.4355536 C142.333333,99.5401231 143.228764,100.435554 144.333333,100.435554 C144.688539,100.435554 145.037336,100.340954 145.343865,100.161481 L182.850387,78.2013932 L182.850387,78.2013932 C183.463247,77.8425632 183.839856,77.1856463 183.839856,76.4754656 L183.839856,32.4719834 L183.839856,32.4719834 C183.839856,31.3674139 182.944425,30.4719834 181.839856,30.4719834 C181.484639,30.4719834 181.135831,30.5665888 180.829295,30.7460727 Z" id="Fill-12-Copy-4"/><path d="M39.0311875,50.9376169 L3.00986604,29.8657582 L3.00986604,29.8657582 C2.05644745,29.3080246 0.831416553,29.6287906 0.273682942,30.5822092 C0.094460143,30.8885819 -2.19949618e-15,31.2371315 -1.99840144e-15,31.5920752 L0,75.5854627 L4.88498131e-15,75.5854627 C4.97198706e-15,76.2959186 0.37689788,76.9530471 0.990133962,77.3117798 L40.0015894,100.132816 L40.0015894,100.132816 C40.4782987,100.411683 41.0908141,100.2513 41.3696809,99.7745904 C41.4592923,99.621404 41.5065224,99.4471292 41.5065224,99.2696574 L41.5065224,55.2534096 L41.5065224,55.2534096 C41.5065224,53.4772698 40.5642777,51.8344485 39.0311875,50.9376169 Z" id="Fill-16-Copy-4"/><path d="M131.830371,104.268001 L94.0434138,82.2662254 L94.0434138,82.2662254 C93.4213895,81.9040465 92.6527269,81.9040465 92.0307026,82.2662254 L54.2437449,104.268001 L54.2437449,104.268001 C53.2891948,104.823796 52.9659398,106.048172 53.5217347,107.002722 C53.6958804,107.301809 53.9446582,107.550587 54.2437449,107.724732 L91.5275248,129.433528 L91.5275248,129.433528 C92.4605612,129.976797 93.6135551,129.976797 94.5465916,129.433528 L131.830371,107.724732 L131.830371,107.724732 C132.784922,107.168938 133.108177,105.944561 132.552382,104.990011 C132.378236,104.690924 132.129458,104.442147 131.830371,104.268001 Z" id="Fill-20-Copy-4"/><path d="M7.37806742,26.0372636 L44.5373702,47.7076078 L44.5373702,47.7076078 C45.4706979,48.2519004 46.6246083,48.2522766 47.5582907,47.7085927 L84.7658264,26.0426176 L84.7658264,26.0426176 C85.7203589,25.4867926 86.0435752,24.2624059 85.4877502,23.3078734 C85.3136078,23.008814 85.0648456,22.7600582 84.7657817,22.5859235 L47.4892509,0.881061371 L47.4892509,0.881061371 C46.5542791,0.336658923 45.3986055,0.337860265 44.4647676,0.884205373 L7.37564757,22.583322 L7.37564757,22.583322 C6.42225827,23.1411057 6.10155655,24.3661534 6.65934022,25.3195427 C6.83316154,25.6166461 7.08072082,25.8638587 7.37806742,26.0372636 Z" id="Fill-2-Copy-4"/><path d="M46.8550725,55.3470039 L46.8550725,98.7756961 L46.8550725,98.7756961 C46.8550725,99.8802656 47.750503,100.775696 48.8550725,100.775696 C49.2086343,100.775696 49.5558773,100.68197 49.8614202,100.504067 L90.4491309,76.8717763 L134.04883,51.564688 L134.980524,50.9407672 L175.651561,27.3714316 L175.651561,27.3714316 C176.368329,26.9560567 176.612655,26.0382743 176.19728,25.3215071 C176.066083,25.0951139 175.877946,24.9069784 175.651552,24.7757826 L138.442117,3.21283977 L138.442117,3.21283977 C136.888361,2.3124347 134.971076,2.31442353 133.419191,3.21805012 L48.3455037,52.7544757 L48.3455037,52.7544757 C47.4226967,53.2918047 46.8550725,54.2791578 46.8550725,55.3470039 Z" id="Fill-8-Copy-4"/></g></g></g></g></svg>